<?xml version="1.0" encoding="UTF-8" standalone="no"?>
<svg
   width="1200"
   height="900"
   viewBox="0 0 1200 900"
   style="background-color:none;"
   version="1.1"
   id="svg35"
   sodipodi:docname="basket.svg"
   inkscape:version="1.4.2 (2aeb623e1d, 2025-05-12)"
   xmlns:inkscape="http://www.inkscape.org/namespaces/inkscape"
   xmlns:sodipodi="http://sodipodi.sourceforge.net/DTD/sodipodi-0.dtd"
   xmlns="http://www.w3.org/2000/svg"
   xmlns:svg="http://www.w3.org/2000/svg">
  <sodipodi:namedview
     id="namedview35"
     pagecolor="#ffffff"
     bordercolor="#000000"
     borderopacity="0.25"
     inkscape:showpageshadow="2"
     inkscape:pageopacity="0.0"
     inkscape:pagecheckerboard="0"
     inkscape:deskcolor="#d1d1d1"
     inkscape:zoom="1.7025"
     inkscape:cx="600"
     inkscape:cy="449.92658"
     inkscape:window-width="3072"
     inkscape:window-height="1691"
     inkscape:window-x="0"
     inkscape:window-y="0"
     inkscape:window-maximized="1"
     inkscape:current-layer="g35" />
  <title
     id="title1">Wicker Food Basket Line Drawing with Corn and Bread</title>
  <desc
     id="desc1">A line drawing of a wicker basket filled with generic food items, including corn and sliced bread, which are clipped to appear inside the basket.</desc>
  <defs
     id="defs1">
    <clipPath
       id="aboveBasket">
      <rect
         x="0"
         y="0"
         width="1200"
         height="405"
         id="rect1" />
    </clipPath>
    <clipPath
       id="aboveBasket-2">
      <rect
         x="0"
         y="0"
         width="1200"
         height="405"
         id="rect1-9" />
    </clipPath>
  </defs>
  <g
     stroke="#006400"
     stroke-width="3"
     fill="none"
     stroke-linecap="round"
     stroke-linejoin="round"
     id="g35">
    <g
       id="g34"
       transform="matrix(0.963064,0,0,0.61438833,-225.55038,309.5667)">
      <path
         d="m 300,650 c 0,100 600,100 600,0 L 950,400 C 950,350 850,350 800,350 H 400 c -50,0 -150,0 -150,50 z"
         id="path20" />
      <path
         d="M 300,650 H 900"
         stroke-dasharray="10, 15"
         id="path21" />
      <path
         d="m 325,400 c 0,-250 550,-250 550,0"
         stroke-width="5"
         id="path22" />
      <path
         d="m 349.96015,400.27467 c 0,-203.71914 500.07978,-203.71914 500.07978,0"
         stroke-width="2.88709"
         stroke-dasharray="8, 12"
         id="path23" />
      <g
         stroke-width="2"
         id="g33"
         transform="matrix(0.91280613,0,0,0.80718973,26.205313,77.000881)">
        <path
           d="M 320,450 H 930"
           id="path24" />
        <path
           d="M 310,500 H 940"
           id="path25" />
        <path
           d="M 305,550 H 945"
           id="path26" />
        <path
           d="M 302,600 H 948"
           id="path27" />
        <path
           d="M 380,400 350,670"
           id="path28" />
        <path
           d="M 460,400 430,690"
           id="path29" />
        <path
           d="M 540,400 510,700"
           id="path30" />
        <path
           d="m 620,400 30,300"
           id="path31" />
        <path
           d="m 700,400 30,290"
           id="path32" />
        <path
           d="m 780,400 30,270"
           id="path33" />
      </g>
    </g>
    <g
       clip-path="url(#aboveBasket-2)"
       id="g20"
       transform="translate(116.01615,41.595728)">
      <g
         transform="translate(300,200)"
         id="g2">
        <path
           d="m 20,0 h 120 l 20,180 H 0 Z"
           id="path1" />
        <path
           d="m 20,0 5,15 h 110 l 5,-15"
           id="path2" />
        <text
           x="80"
           y="80"
           text-anchor="middle"
           font-family="sans-serif"
           font-size="24px"
           stroke-width="1"
           id="text2">FLOUR</text>
      </g>
      <g
         transform="translate(480,220)"
         id="g4">
        <ellipse
           cx="50"
           cy="10"
           rx="50"
           ry="10"
           id="ellipse2" />
        <path
           d="m 0,10 v 150 c 0,15 100,15 100,0 V 10"
           id="path3" />
        <ellipse
           cx="50"
           cy="160"
           rx="50"
           ry="10"
           id="ellipse3" />
        <path
           d="M 10,40 H 90 M 10,70 h 80 m -80,30 h 80"
           stroke-width="2"
           id="path4" />
      </g>
      <g
         transform="translate(610,250)"
         id="g6">
        <ellipse
           cx="40"
           cy="8"
           rx="40"
           ry="8"
           id="ellipse4" />
        <path
           d="m 0,8 v 132 c 0,10 80,10 80,0 V 8"
           id="path5" />
        <ellipse
           cx="40"
           cy="140"
           rx="40"
           ry="8"
           id="ellipse5" />
        <path
           d="M 10,35 H 70 M 10,65 h 60"
           stroke-width="2"
           id="path6" />
      </g>
      <g
         transform="translate(400,320)"
         id="g7">
        <circle
           cx="35"
           cy="35"
           r="35"
           id="circle6" />
        <path
           d="M 35,5 Q 40,-5 50,0"
           stroke-width="3"
           id="path7" />
      </g>
      <g
         transform="translate(520,330)"
         id="g8">
        <circle
           cx="30"
           cy="30"
           r="30"
           id="circle7" />
      </g>
      <g
         transform="rotate(-15,1501.2782,-1425.1084)"
         id="g9">
        <path
           d="M 0,25 Q 35,-10 70,25 60,50 0,25 Z"
           stroke-width="2"
           id="path8" />
      </g>
      <g
         transform="rotate(10,-768.00523,4386.2696)"
         id="g12">
        <ellipse
           cx="30"
           cy="80"
           rx="30"
           ry="80"
           id="ellipse9" />
        <path
           d="M 10,10 H 50 M 5,30 H 55 M 0,50 H 60 M 0,70 H 60 M 5,90 h 50 m -45,20 h 40 m -30,20 h 20"
           stroke-width="1"
           id="path9" />
        <path
           d="M 30,160 V 0 M 15,155 V 5 M 45,155 V 5"
           stroke-width="1"
           id="path10" />
        <path
           d="m 0,120 q -20,40 30,60 50,-20 30,-60"
           fill="none"
           id="path11" />
        <path
           d="M 30,0 V -20"
           stroke-width="3"
           id="path12" />
      </g>
    </g>
  </g>
</svg>
