<?xml version="1.0" encoding="UTF-8"?>
<svg version="1.1" viewBox="0 0 1320 900" xmlns="http://www.w3.org/2000/svg">
 <svg x="13200" style="left:1000vw;position:fixed" version="1.1">
  <text/>
 </svg>
 <svg id="graphic" class="ready" x="14.4" y="14.4" width="1291.2" height="871.2" fill="currentColor" font-family="Canva Sans Variable" version="1.1">
  <g class="facets">
   <g class="fl-facets">
    <g class="fl-facet" transform="translate(58.55)">
     <rect class="fl-facet-rect" width="1232.7" height="787.27" fill="none"/>
     <rect class="fl-facet-primary-rect" width="1232.7" height="787.27" fill="none"/>
     <g class="fl-facet-title">
      <rect class="fl-facet-title-bg" width="0" height="0" fill="#eee" opacity="0"/>
      <text class="fl-facet-title-text" transform="translate(0 20.16)" font-size="19.2" font-weight="600" opacity="0"><tspan x="0" y="0" dx="0"/></text>
     </g>
     <g class="fl-facet-primary" transform="translate(0)">
      <g class="fl-chart ready">
       <rect class="fl-chart-debug-rectangle" width="1232.7" height="787.27" display="none" fill="none" stroke="red" stroke-width="1px"/>
       <clipPath id="fl-axes-1-clip-path" class="fl-data-clip-path">
        <rect y="55.04" width="1067.4" height="732.23"/>
       </clipPath>
       <clipPath id="fl-axes-1-grid-clip-path" class="fl-grid-clip-path">
        <rect x="-2" y="53.04" width="1071.4" height="736.23"/>
       </clipPath>
       <g class="fl-chart-background">
        <rect class="fl-chart-fill" y="55.04" width="1067.4" height="732.23" fill="none"/>
        <image class="fl-chart-image" y="55.04" width="1067.4" height="732.23" preserveAspectRatio="none"/>
        <rect class="fl-chart-interaction" y="55.04" width="1067.4" height="732.23" opacity="0"/>
       </g>
       <g class="fl-gridlines" clip-path="url(#fl-axes-1-grid-clip-path)" pointer-events="none">
        <g class="fl-gridlines-horizontal" shape-rendering="crispedges" stroke="#eee" stroke-width="2px">
         <line x2="1067.4" y1="720.7" y2="720.7"/>
         <line x2="1067.4" y1="587.57" y2="587.57"/>
         <line x2="1067.4" y1="454.44" y2="454.44"/>
         <line x2="1067.4" y1="321.3" y2="321.3"/>
         <line x2="1067.4" y1="188.17" y2="188.17"/>
         <line x2="1067.4" y1="55.04" y2="55.04"/>
        </g>
       </g>
       <g class="fl-axes" aria-hidden="true">
        <g class="fl-x-axes">
         <g class="fl-axis fl-x-axis fl-bottom-axis">
          <g class="fl-axis-line">
           <line x2="1067.4" y1="787.27" y2="787.27" shape-rendering="crispedges" stroke="#eee" stroke-linecap="square" stroke-width="2px"/>
          </g>
          <g class="fl-axis-ticks">
           <g transform="translate(1067.4 787.27)">
            <line y2="9.6" stroke="#eee" stroke-width="2px"/>
            <text transform="translate(0 14.4) rotate(-45) translate(0 12.672)" cursor="default" fill="rgb(74, 74, 74)" font-size="19.2px" text-anchor="end" style="user-select:none"><tspan x="0" dy="0">10/2025</tspan></text>
           </g>
           <g transform="translate(1004.2 787.27)">
            <line y2="9.6" stroke="#eee" stroke-width="2px"/>
            <text transform="translate(0 14.4) rotate(-45) translate(0 12.672)" cursor="default" fill="rgb(74, 74, 74)" font-size="19.2px" text-anchor="end" style="user-select:none"><tspan x="0" dy="0">07/2025</tspan></text>
           </g>
           <g transform="translate(941.64 787.27)">
            <line y2="9.6" stroke="#eee" stroke-width="2px"/>
            <text transform="translate(0 14.4) rotate(-45) translate(0 12.672)" cursor="default" fill="rgb(74, 74, 74)" font-size="19.2px" text-anchor="end" style="user-select:none"><tspan x="0" dy="0">04/2025</tspan></text>
           </g>
           <g transform="translate(879.78 787.27)">
            <line y2="9.6" stroke="#eee" stroke-width="2px"/>
            <text transform="translate(0 14.4) rotate(-45) translate(0 12.672)" cursor="default" fill="rgb(74, 74, 74)" font-size="19.2px" text-anchor="end" style="user-select:none"><tspan x="0" dy="0">01/2025</tspan></text>
           </g>
           <g transform="translate(816.55 787.27)">
            <line y2="9.6" stroke="#eee" stroke-width="2px"/>
            <text transform="translate(0 14.4) rotate(-45) translate(0 12.672)" cursor="default" fill="rgb(74, 74, 74)" font-size="19.2px" text-anchor="end" style="user-select:none"><tspan x="0" dy="0">10/2024</tspan></text>
           </g>
           <g transform="translate(753.31 787.27)">
            <line y2="9.6" stroke="#eee" stroke-width="2px"/>
            <text transform="translate(0 14.4) rotate(-45) translate(0 12.672)" cursor="default" fill="rgb(74, 74, 74)" font-size="19.2px" text-anchor="end" style="user-select:none"><tspan x="0" dy="0">07/2024</tspan></text>
           </g>
           <g transform="translate(690.76 787.27)">
            <line y2="9.6" stroke="#eee" stroke-width="2px"/>
            <text transform="translate(0 14.4) rotate(-45) translate(0 12.672)" cursor="default" fill="rgb(74, 74, 74)" font-size="19.2px" text-anchor="end" style="user-select:none"><tspan x="0" dy="0">04/2024</tspan></text>
           </g>
           <g transform="translate(628.22 787.27)">
            <line y2="9.6" stroke="#eee" stroke-width="2px"/>
            <text transform="translate(0 14.4) rotate(-45) translate(0 12.672)" cursor="default" fill="rgb(74, 74, 74)" font-size="19.2px" text-anchor="end" style="user-select:none"><tspan x="0" dy="0">01/2024</tspan></text>
           </g>
           <g transform="translate(564.98 787.27)">
            <line y2="9.6" stroke="#eee" stroke-width="2px"/>
            <text transform="translate(0 14.4) rotate(-45) translate(0 12.672)" cursor="default" fill="rgb(74, 74, 74)" font-size="19.2px" text-anchor="end" style="user-select:none"><tspan x="0" dy="0">10/2023</tspan></text>
           </g>
           <g transform="translate(501.75 787.27)">
            <line y2="9.6" stroke="#eee" stroke-width="2px"/>
            <text transform="translate(0 14.4) rotate(-45) translate(0 12.672)" cursor="default" fill="rgb(74, 74, 74)" font-size="19.2px" text-anchor="end" style="user-select:none"><tspan x="0" dy="0">07/2023</tspan></text>
           </g>
           <g transform="translate(439.2 787.27)">
            <line y2="9.6" stroke="#eee" stroke-width="2px"/>
            <text transform="translate(0 14.4) rotate(-45) translate(0 12.672)" cursor="default" fill="rgb(74, 74, 74)" font-size="19.2px" text-anchor="end" style="user-select:none"><tspan x="0" dy="0">04/2023</tspan></text>
           </g>
           <g transform="translate(377.34 787.27)">
            <line y2="9.6" stroke="#eee" stroke-width="2px"/>
            <text transform="translate(0 14.4) rotate(-45) translate(0 12.672)" cursor="default" fill="rgb(74, 74, 74)" font-size="19.2px" text-anchor="end" style="user-select:none"><tspan x="0" dy="0">01/2023</tspan></text>
           </g>
           <g transform="translate(314.11 787.27)">
            <line y2="9.6" stroke="#eee" stroke-width="2px"/>
            <text transform="translate(0 14.4) rotate(-45) translate(0 12.672)" cursor="default" fill="rgb(74, 74, 74)" font-size="19.2px" text-anchor="end" style="user-select:none"><tspan x="0" dy="0">10/2022</tspan></text>
           </g>
           <g transform="translate(250.87 787.27)">
            <line y2="9.6" stroke="#eee" stroke-width="2px"/>
            <text transform="translate(0 14.4) rotate(-45) translate(0 12.672)" cursor="default" fill="rgb(74, 74, 74)" font-size="19.2px" text-anchor="end" style="user-select:none"><tspan x="0" dy="0">07/2022</tspan></text>
           </g>
           <g transform="translate(188.33 787.27)">
            <line y2="9.6" stroke="#eee" stroke-width="2px"/>
            <text transform="translate(0 14.4) rotate(-45) translate(0 12.672)" cursor="default" fill="rgb(74, 74, 74)" font-size="19.2px" text-anchor="end" style="user-select:none"><tspan x="0" dy="0">04/2022</tspan></text>
           </g>
           <g transform="translate(126.47 787.27)">
            <line y2="9.6" stroke="#eee" stroke-width="2px"/>
            <text transform="translate(0 14.4) rotate(-45) translate(0 12.672)" cursor="default" fill="rgb(74, 74, 74)" font-size="19.2px" text-anchor="end" style="user-select:none"><tspan x="0" dy="0">01/2022</tspan></text>
           </g>
           <g transform="translate(63.234 787.27)">
            <line y2="9.6" stroke="#eee" stroke-width="2px"/>
            <text transform="translate(0 14.4) rotate(-45) translate(0 12.672)" cursor="default" fill="rgb(74, 74, 74)" font-size="19.2px" text-anchor="end" style="user-select:none"><tspan x="0" dy="0">10/2021</tspan></text>
           </g>
           <g transform="translate(0 787.27)">
            <line y2="9.6" stroke="#eee" stroke-width="2px"/>
            <text transform="translate(0 14.4) rotate(-45) translate(0 12.672)" cursor="default" fill="rgb(74, 74, 74)" font-size="19.2px" text-anchor="end" style="user-select:none"><tspan x="0" dy="0">07/2021</tspan></text>
           </g>
          </g>
         </g>
         <g class="fl-axis fl-x-axis fl-top-axis"></g>
        </g>
        <g class="fl-y-axes">
         <g class="fl-axis fl-y-axis fl-left-axis">
          <g class="fl-axis-line">
           <line y1="787.27" y2="55.04" shape-rendering="crispedges" stroke="#eee" stroke-linecap="square" stroke-width="2px"/>
          </g>
          <g class="fl-axis-ticks">
           <g transform="translate(0 587.57)">
            <line x2="-34.033" stroke="#eee" stroke-width="2px"/>
            <text transform="translate(-20.517 19.2)" cursor="default" fill="rgb(74, 74, 74)" font-size="19.2px" text-anchor="end" style="user-select:none"><tspan x="0" dy="0">0</tspan></text>
           </g>
           <g transform="translate(0,55.04)">
            <line x2="-34.033" stroke="#eee" stroke-width="2px"/>
            <text transform="translate(-8.8667 19.2)" cursor="default" fill="rgb(74, 74, 74)" font-size="19.2px" text-anchor="end" style="user-select:none"><tspan x="0" dy="0">40</tspan></text>
           </g>
           <g transform="translate(0 188.17)">
            <line x2="-34.033" stroke="#eee" stroke-width="2px"/>
            <text transform="translate(-9.35 19.2)" cursor="default" fill="rgb(74, 74, 74)" font-size="19.2px" text-anchor="end" style="user-select:none"><tspan x="0" dy="0">30</tspan></text>
           </g>
           <g transform="translate(0 321.3)">
            <line x2="-34.033" stroke="#eee" stroke-width="2px"/>
            <text transform="translate(-9.95 19.2)" cursor="default" fill="rgb(74, 74, 74)" font-size="19.2px" text-anchor="end" style="user-select:none"><tspan x="0" dy="0">20</tspan></text>
           </g>
           <g transform="translate(0 454.44)">
            <line x2="-34.033" stroke="#eee" stroke-width="2px"/>
            <text transform="translate(-10.633 19.2)" cursor="default" fill="rgb(74, 74, 74)" font-size="19.2px" text-anchor="end" style="user-select:none"><tspan x="0" dy="0">10</tspan></text>
           </g>
           <g transform="translate(0 720.7)">
            <line x2="-34.033" stroke="#eee" stroke-width="2px"/>
            <text transform="translate(-4.8,19.2)" cursor="default" fill="rgb(74, 74, 74)" font-size="19.2px" text-anchor="end" style="user-select:none"><tspan x="0" dy="0">-10</tspan></text>
           </g>
          </g>
          <g class="fl-axis-title">
           <text transform="translate(-58.55 29.02)" cursor="default" fill="rgb(74, 74, 74)" font-size="21.12px" font-weight="bold" style="user-select:none">CPI % change year on year</text>
          </g>
         </g>
         <g class="fl-axis fl-y-axis fl-right-axis"></g>
        </g>
       </g>
      </g>
     </g>
    </g>
   </g>
  </g>
  <g id="lines">
   <g class="series" fill="none" pointer-events="none">
    <clipPath id="clip-0-0">
     <rect y="53.12" width="1067.4" height="736.07"/>
    </clipPath>
    <path class="outline" transform="translate(58.55)" d="m21.307 523.4c7.103-0.54 14.205-1.079 21.307-1.598 6.874-0.501 13.747-0.488 20.62-1.464 7.103-1.009 14.205-3 21.307-4.926 6.874-1.864 13.747-6.39 20.62-6.39 7.103 0 14.205 3.328 21.307 3.594 7.103 0.267 14.205 0.4 21.307 0.4 6.416 0 12.831-4.26 19.246-4.26 7.102 0 14.204 0.532 21.307 0.532 6.873 0 13.746-4.264 20.62-7.855 7.102-3.71 14.204-11.769 21.307-14.245 6.873-2.396 13.746-3.594 20.62-3.594 7.102 0 14.204 1.242 21.307 1.863 7.102 0.622 14.205 1.589 21.307 1.864 6.873 0.267 13.747 0.29 20.62 0.4 7.102 0.113 14.205 0.088 21.307 0.266 6.873 0.172 13.747 2.336 20.62 3.728 7.102 1.438 14.205 4.792 21.307 4.792s14.205-2.136 21.307-2.529c6.415-0.355 12.83-0.533 19.245-0.533 7.103 0 14.205 1.864 21.307 3.595 6.874 1.675 13.747 3.391 20.62 6.523 7.103 3.237 14.205 9.218 21.307 12.781 6.874 3.448 13.747 8.387 20.62 8.387 7.103 0 14.205-0.443 21.307-1.331 7.103-0.887 14.205-4.519 21.308-7.189 6.873-2.584 13.746-8.521 20.619-8.521 7.103 0 14.205 4.328 21.308 6.125 6.873 1.738 13.746 4.526 20.619 4.526 7.103 0 14.205-2.041 21.308-2.929 7.102-0.887 14.204-2.396 21.307-2.396 6.644 0 13.288 2.845 19.932 3.727 7.103 0.944 14.205 1.506 21.307 1.598 6.874 0.089 13.747 0.044 20.62 0.133 7.103 0.092 14.205 0.533 21.307 1.598 6.874 1.03 13.747 4.622 20.62 6.124 7.103 1.552 14.205 1.22 21.307 2.929 7.103 1.708 14.205 3.651 21.308 7.322 6.873 3.552 13.746 14.112 20.619 14.112 7.103 0 14.205-0.857 21.308-1.331 6.873-0.46 13.746-0.794 20.619-1.465 7.103-0.693 14.205-2.662 21.308-2.662 7.102 0 14.204 0.133 21.307 0.399 6.415 0.24 12.83 5.725 19.245 5.725 7.102 0 14.205-1.332 21.307-1.332 6.873 0 13.747 0.133 20.62 0.133 7.102 0 14.205-1.084 21.307-2.662 6.873-1.528 13.747-6.524 20.62-6.524 7.102 0 14.205 1.398 21.307 2.796" clip-path="url(#clip-0-0)" stroke-width="0" clip-path-id="0-0"/>
    <path class="line" transform="translate(58.55)" d="m21.307 523.4c7.103-0.54 14.205-1.079 21.307-1.598 6.874-0.501 13.747-0.488 20.62-1.464 7.103-1.009 14.205-3 21.307-4.926 6.874-1.864 13.747-6.39 20.62-6.39 7.103 0 14.205 3.328 21.307 3.594 7.103 0.267 14.205 0.4 21.307 0.4 6.416 0 12.831-4.26 19.246-4.26 7.102 0 14.204 0.532 21.307 0.532 6.873 0 13.746-4.264 20.62-7.855 7.102-3.71 14.204-11.769 21.307-14.245 6.873-2.396 13.746-3.594 20.62-3.594 7.102 0 14.204 1.242 21.307 1.863 7.102 0.622 14.205 1.589 21.307 1.864 6.873 0.267 13.747 0.29 20.62 0.4 7.102 0.113 14.205 0.088 21.307 0.266 6.873 0.172 13.747 2.336 20.62 3.728 7.102 1.438 14.205 4.792 21.307 4.792s14.205-2.136 21.307-2.529c6.415-0.355 12.83-0.533 19.245-0.533 7.103 0 14.205 1.864 21.307 3.595 6.874 1.675 13.747 3.391 20.62 6.523 7.103 3.237 14.205 9.218 21.307 12.781 6.874 3.448 13.747 8.387 20.62 8.387 7.103 0 14.205-0.443 21.307-1.331 7.103-0.887 14.205-4.519 21.308-7.189 6.873-2.584 13.746-8.521 20.619-8.521 7.103 0 14.205 4.328 21.308 6.125 6.873 1.738 13.746 4.526 20.619 4.526 7.103 0 14.205-2.041 21.308-2.929 7.102-0.887 14.204-2.396 21.307-2.396 6.644 0 13.288 2.845 19.932 3.727 7.103 0.944 14.205 1.506 21.307 1.598 6.874 0.089 13.747 0.044 20.62 0.133 7.103 0.092 14.205 0.533 21.307 1.598 6.874 1.03 13.747 4.622 20.62 6.124 7.103 1.552 14.205 1.22 21.307 2.929 7.103 1.708 14.205 3.651 21.308 7.322 6.873 3.552 13.746 14.112 20.619 14.112 7.103 0 14.205-0.857 21.308-1.331 6.873-0.46 13.746-0.794 20.619-1.465 7.103-0.693 14.205-2.662 21.308-2.662 7.102 0 14.204 0.133 21.307 0.399 6.415 0.24 12.83 5.725 19.245 5.725 7.102 0 14.205-1.332 21.307-1.332 6.873 0 13.747 0.133 20.62 0.133 7.102 0 14.205-1.084 21.307-2.662 6.873-1.528 13.747-6.524 20.62-6.524 7.102 0 14.205 1.398 21.307 2.796" clip-path="url(#clip-0-0)" stroke="#d7d8da" stroke-width="1.92" clip-path-id="0-0"/>
    <clipPath id="clip-0-1">
     <rect y="53.12" width="1067.4" height="736.07"/>
    </clipPath>
    <path class="outline" transform="translate(58.55)" d="m21.307 488.38c7.103 1.93 14.205 3.86 21.307 5.592 6.874 1.676 13.747 2.349 20.62 4.66 7.103 2.387 14.205 9.31 21.307 9.585 6.874 0.266 13.747 0.399 20.62 0.399 7.103 0 14.205-2.751 21.307-4.659 7.103-1.908 14.205-6.79 21.307-6.79 6.416 0 12.831 3.153 19.246 4.26 7.102 1.227 14.204 2.53 21.307 2.53 6.873 0 13.746-13.726 20.62-19.704 7.102-6.177 14.204-11.28 21.307-16.641 6.873-5.189 13.746-9.94 20.62-15.044 7.102-5.274 14.204-11.427 21.307-16.109 7.102-4.682 14.205-11.799 21.307-11.982 6.873-0.177 13.747-0.089 20.62-0.266 7.102-0.184 14.205-6.391 21.307-6.391 6.873 0 13.747 0.799 20.62 0.799 7.102 0 14.205-13.313 21.307-14.644 7.102-1.332 14.205-0.666 21.307-1.997 6.415-1.203 12.83-5.326 19.245-5.326 7.103 0 14.205 0.489 21.307 1.465 6.874 0.945 13.747 22.147 20.62 29.156 7.103 7.242 14.205 8.461 21.307 13.047 6.874 4.438 13.747 7.936 20.62 13.979 7.103 6.244 14.205 20.679 21.307 23.165 7.103 2.485 14.205 3.727 21.308 3.727 6.873 0 13.746-9.456 20.619-10.917 7.103-1.508 14.205-2.263 21.308-2.263 6.873 0 13.746 2.203 20.619 6.391 7.103 4.326 14.205 14.045 21.308 19.57 7.102 5.525 14.204 8.646 21.307 13.579 6.644 4.615 13.288 11.44 19.932 14.911 7.103 3.71 14.205 4.891 21.307 5.991 6.874 1.065 13.747 1.052 20.62 1.598 7.103 0.563 14.205 0.701 21.307 1.73 6.874 0.997 13.747 4.261 20.62 4.261 7.103 0 14.205-2.796 21.307-2.796 7.103 0 14.205 0.089 21.308 0.266 6.873 0.172 13.746 11.646 20.619 17.174 7.103 5.713 14.205 16.508 21.308 16.508 6.873 0 13.746-2.662 20.619-2.662 7.103 0 14.205 2.796 21.308 2.796 7.102 0 14.204-3.683 21.307-5.326 6.415-1.483 12.83-1.375 19.245-4.127 7.102-3.046 14.205-9.791 21.307-14.777 6.873-4.826 13.747-12.154 20.62-14.645 7.102-2.574 14.205-1.34 21.307-3.861 6.873-2.439 13.747-10.783 20.62-10.783 7.102 0 14.205 2.063 21.307 4.127" clip-path="url(#clip-0-1)" stroke-width="0" clip-path-id="0-1"/>
    <path class="line" transform="translate(58.55)" d="m21.307 488.38c7.103 1.93 14.205 3.86 21.307 5.592 6.874 1.676 13.747 2.349 20.62 4.66 7.103 2.387 14.205 9.31 21.307 9.585 6.874 0.266 13.747 0.399 20.62 0.399 7.103 0 14.205-2.751 21.307-4.659 7.103-1.908 14.205-6.79 21.307-6.79 6.416 0 12.831 3.153 19.246 4.26 7.102 1.227 14.204 2.53 21.307 2.53 6.873 0 13.746-13.726 20.62-19.704 7.102-6.177 14.204-11.28 21.307-16.641 6.873-5.189 13.746-9.94 20.62-15.044 7.102-5.274 14.204-11.427 21.307-16.109 7.102-4.682 14.205-11.799 21.307-11.982 6.873-0.177 13.747-0.089 20.62-0.266 7.102-0.184 14.205-6.391 21.307-6.391 6.873 0 13.747 0.799 20.62 0.799 7.102 0 14.205-13.313 21.307-14.644 7.102-1.332 14.205-0.666 21.307-1.997 6.415-1.203 12.83-5.326 19.245-5.326 7.103 0 14.205 0.489 21.307 1.465 6.874 0.945 13.747 22.147 20.62 29.156 7.103 7.242 14.205 8.461 21.307 13.047 6.874 4.438 13.747 7.936 20.62 13.979 7.103 6.244 14.205 20.679 21.307 23.165 7.103 2.485 14.205 3.727 21.308 3.727 6.873 0 13.746-9.456 20.619-10.917 7.103-1.508 14.205-2.263 21.308-2.263 6.873 0 13.746 2.203 20.619 6.391 7.103 4.326 14.205 14.045 21.308 19.57 7.102 5.525 14.204 8.646 21.307 13.579 6.644 4.615 13.288 11.44 19.932 14.911 7.103 3.71 14.205 4.891 21.307 5.991 6.874 1.065 13.747 1.052 20.62 1.598 7.103 0.563 14.205 0.701 21.307 1.73 6.874 0.997 13.747 4.261 20.62 4.261 7.103 0 14.205-2.796 21.307-2.796 7.103 0 14.205 0.089 21.308 0.266 6.873 0.172 13.746 11.646 20.619 17.174 7.103 5.713 14.205 16.508 21.308 16.508 6.873 0 13.746-2.662 20.619-2.662 7.103 0 14.205 2.796 21.308 2.796 7.102 0 14.204-3.683 21.307-5.326 6.415-1.483 12.83-1.375 19.245-4.127 7.102-3.046 14.205-9.791 21.307-14.777 6.873-4.826 13.747-12.154 20.62-14.645 7.102-2.574 14.205-1.34 21.307-3.861 6.873-2.439 13.747-10.783 20.62-10.783 7.102 0 14.205 2.063 21.307 4.127" clip-path="url(#clip-0-1)" stroke="#d7d8da" stroke-width="1.92" clip-path-id="0-1"/>
    <clipPath id="clip-0-2">
     <rect y="53.12" width="1067.4" height="736.07"/>
    </clipPath>
    <path class="outline" transform="translate(58.55)" d="m21.307 540.7c7.103 2.883 14.205 5.766 21.307 5.858 6.874 0.089 13.747 0.044 20.62 0.133 7.103 0.092 14.205 6.821 21.307 9.719 6.874 2.805 13.747 5.58 20.62 7.455 7.103 1.938 14.205 3.861 21.307 3.861 7.103 0 14.205-23.462 21.307-30.753 6.416-6.586 12.831-11.393 19.246-12.515 7.102-1.242 14.204-0.621 21.307-1.864 6.873-1.202 13.746-32.904 20.62-46.862 7.102-14.423 14.204-26.13 21.307-37.943 6.873-11.432 13.746-17.774 20.62-31.951 7.102-14.651 14.204-42.736 21.307-55.25 7.102-12.515 14.205-18.003 21.307-19.837 6.873-1.775 13.747-1.303 20.62-2.662 7.102-1.405 14.205-3.295 21.307-5.725 6.873-2.352 13.747-4.416 20.62-8.521 7.102-4.241 14.205-16.774 21.307-16.774s14.205 15.243 21.307 17.307c6.415 1.864 12.83 2.796 19.245 2.796 7.103 0 14.205-6.524 21.307-6.524 6.874 0 13.747 23.907 20.62 35.546 7.103 12.028 14.205 24.038 21.307 35.414 6.874 11.008 13.747 19.5 20.62 31.818 7.103 12.728 14.205 37.543 21.307 43.667 7.103 6.124 14.205 7.028 21.308 9.186 6.873 2.089 13.746 2.463 20.619 3.728 7.103 1.307 14.205 1.331 21.308 3.994 6.873 2.577 13.746 9.631 20.619 14.112 7.103 4.631 14.205 10.074 21.308 13.18 7.102 3.107 14.204 2.079 21.307 5.459 6.644 3.161 13.288 9.695 19.932 13.579 7.103 4.152 14.205 7.732 21.307 10.251 6.874 2.438 13.747 4.793 20.62 4.793 7.103 0 14.205-12.981 21.307-16.642 6.874-3.542 13.747-3.979 20.62-5.325 7.103-1.39 14.205-2.796 21.307-2.796 7.103 0 14.205 1.915 21.308 4.66 6.873 2.656 13.746 7.372 20.619 11.316 7.103 4.076 14.205 12.781 21.308 12.781 6.873 0 13.746-1.026 20.619-1.465 7.103-0.452 14.205-0.843 21.308-1.198 7.102-0.355 14.204-0.31 21.307-0.932 6.415-0.561 12.83-3.513 19.245-5.458 7.102-2.154 14.205-6.923 21.307-6.923 6.873 0 13.747 1.509 20.62 4.527 7.102 3.118 14.205 14.218 21.307 19.57 6.873 5.18 13.747 8.906 20.62 12.248 7.102 3.454 14.205 5.721 21.307 7.988" clip-path="url(#clip-0-2)" stroke-width="0" clip-path-id="0-2"/>
    <path class="line" transform="translate(58.55)" d="m21.307 540.7c7.103 2.883 14.205 5.766 21.307 5.858 6.874 0.089 13.747 0.044 20.62 0.133 7.103 0.092 14.205 6.821 21.307 9.719 6.874 2.805 13.747 5.58 20.62 7.455 7.103 1.938 14.205 3.861 21.307 3.861 7.103 0 14.205-23.462 21.307-30.753 6.416-6.586 12.831-11.393 19.246-12.515 7.102-1.242 14.204-0.621 21.307-1.864 6.873-1.202 13.746-32.904 20.62-46.862 7.102-14.423 14.204-26.13 21.307-37.943 6.873-11.432 13.746-17.774 20.62-31.951 7.102-14.651 14.204-42.736 21.307-55.25 7.102-12.515 14.205-18.003 21.307-19.837 6.873-1.775 13.747-1.303 20.62-2.662 7.102-1.405 14.205-3.295 21.307-5.725 6.873-2.352 13.747-4.416 20.62-8.521 7.102-4.241 14.205-16.774 21.307-16.774s14.205 15.243 21.307 17.307c6.415 1.864 12.83 2.796 19.245 2.796 7.103 0 14.205-6.524 21.307-6.524 6.874 0 13.747 23.907 20.62 35.546 7.103 12.028 14.205 24.038 21.307 35.414 6.874 11.008 13.747 19.5 20.62 31.818 7.103 12.728 14.205 37.543 21.307 43.667 7.103 6.124 14.205 7.028 21.308 9.186 6.873 2.089 13.746 2.463 20.619 3.728 7.103 1.307 14.205 1.331 21.308 3.994 6.873 2.577 13.746 9.631 20.619 14.112 7.103 4.631 14.205 10.074 21.308 13.18 7.102 3.107 14.204 2.079 21.307 5.459 6.644 3.161 13.288 9.695 19.932 13.579 7.103 4.152 14.205 7.732 21.307 10.251 6.874 2.438 13.747 4.793 20.62 4.793 7.103 0 14.205-12.981 21.307-16.642 6.874-3.542 13.747-3.979 20.62-5.325 7.103-1.39 14.205-2.796 21.307-2.796 7.103 0 14.205 1.915 21.308 4.66 6.873 2.656 13.746 7.372 20.619 11.316 7.103 4.076 14.205 12.781 21.308 12.781 6.873 0 13.746-1.026 20.619-1.465 7.103-0.452 14.205-0.843 21.308-1.198 7.102-0.355 14.204-0.31 21.307-0.932 6.415-0.561 12.83-3.513 19.245-5.458 7.102-2.154 14.205-6.923 21.307-6.923 6.873 0 13.747 1.509 20.62 4.527 7.102 3.118 14.205 14.218 21.307 19.57 6.873 5.18 13.747 8.906 20.62 12.248 7.102 3.454 14.205 5.721 21.307 7.988" clip-path="url(#clip-0-2)" stroke="#d7d8da" stroke-width="1.92" clip-path-id="0-2"/>
    <clipPath id="clip-0-3">
     <rect y="53.12" width="1067.4" height="736.07"/>
    </clipPath>
    <path class="outline" transform="translate(58.55)" d="m21.307 447.78c7.103 0.289 14.205 0.577 21.307 1.731 6.874 1.116 13.747 13.129 20.62 17.307 7.103 4.317 14.205 7.855 21.307 7.855 6.874 0 13.747-1.997 20.62-1.997 7.103 0 14.205 5.059 21.307 5.059 7.103 0 14.205-3.631 21.307-5.325 6.416-1.531 12.831-4.394 19.246-4.394 7.102 0 14.204 4.793 21.307 4.793 6.873 0 13.746-8.259 20.62-9.719 7.102-1.509 14.204-2.263 21.307-2.263 6.873 0 13.746 0.266 20.62 0.799 7.102 0.55 14.204 2.529 21.307 2.529 7.102 0 14.205-5.052 21.307-7.854 6.873-2.712 13.747-8.139 20.62-8.654 7.102-0.533 14.205-0.799 21.307-0.799 6.873 0 13.747 10.784 20.62 10.784 7.102 0 14.205-15.887 21.307-17.84 7.102-1.952 14.205-2.929 21.307-2.929 6.415 0 12.83 6.034 19.245 9.852 7.103 4.227 14.205 6.534 21.307 14.645 6.874 7.848 13.747 25.17 20.62 32.617 7.103 7.695 14.205 7.565 21.307 12.115 6.874 4.403 13.747 9.186 20.62 14.644 7.103 5.641 14.205 18.772 21.307 18.772 7.103 0 14.205-2.529 21.308-2.529 6.873 0 13.746 6.124 20.619 6.124 7.103 0 14.205-1.416 21.308-2.53 6.873-1.078 13.746-3.994 20.619-3.994 7.103 0 14.205 16.287 21.308 21.434 7.102 5.148 14.204 6.214 21.307 9.453 6.644 3.029 13.288 7.092 19.932 9.319 7.103 2.381 14.205 4.127 21.307 4.127 6.874 0 13.747-2.111 20.62-2.796 7.103-0.707 14.205-0.623 21.307-1.331 6.874-0.685 13.747-1.667 20.62-2.796 7.103-1.166 14.205-4.127 21.307-4.127 7.103 0 14.205 3.841 21.308 5.458 6.873 1.566 13.746 1.929 20.619 4.128 7.103 2.272 14.205 7.203 21.308 9.452 6.873 2.176 13.746 3.221 20.619 3.994 7.103 0.799 14.205 1.198 21.308 1.198 7.102 0 14.204-4.459 21.307-6.523 6.415-1.865 12.83-1.775 19.245-5.326 7.102-3.93 14.205-25.765 21.307-34.747 6.873-8.693 13.747-10.945 20.62-18.772 7.102-8.087 14.205-15.538 21.307-29.289 6.873-13.306 13.747-43.822 20.62-51.122 7.102-7.544 14.205-9.431 21.307-11.317" clip-path="url(#clip-0-3)" stroke-width="0" clip-path-id="0-3"/>
    <path class="line" transform="translate(58.55)" d="m21.307 447.78c7.103 0.289 14.205 0.577 21.307 1.731 6.874 1.116 13.747 13.129 20.62 17.307 7.103 4.317 14.205 7.855 21.307 7.855 6.874 0 13.747-1.997 20.62-1.997 7.103 0 14.205 5.059 21.307 5.059 7.103 0 14.205-3.631 21.307-5.325 6.416-1.531 12.831-4.394 19.246-4.394 7.102 0 14.204 4.793 21.307 4.793 6.873 0 13.746-8.259 20.62-9.719 7.102-1.509 14.204-2.263 21.307-2.263 6.873 0 13.746 0.266 20.62 0.799 7.102 0.55 14.204 2.529 21.307 2.529 7.102 0 14.205-5.052 21.307-7.854 6.873-2.712 13.747-8.139 20.62-8.654 7.102-0.533 14.205-0.799 21.307-0.799 6.873 0 13.747 10.784 20.62 10.784 7.102 0 14.205-15.887 21.307-17.84 7.102-1.952 14.205-2.929 21.307-2.929 6.415 0 12.83 6.034 19.245 9.852 7.103 4.227 14.205 6.534 21.307 14.645 6.874 7.848 13.747 25.17 20.62 32.617 7.103 7.695 14.205 7.565 21.307 12.115 6.874 4.403 13.747 9.186 20.62 14.644 7.103 5.641 14.205 18.772 21.307 18.772 7.103 0 14.205-2.529 21.308-2.529 6.873 0 13.746 6.124 20.619 6.124 7.103 0 14.205-1.416 21.308-2.53 6.873-1.078 13.746-3.994 20.619-3.994 7.103 0 14.205 16.287 21.308 21.434 7.102 5.148 14.204 6.214 21.307 9.453 6.644 3.029 13.288 7.092 19.932 9.319 7.103 2.381 14.205 4.127 21.307 4.127 6.874 0 13.747-2.111 20.62-2.796 7.103-0.707 14.205-0.623 21.307-1.331 6.874-0.685 13.747-1.667 20.62-2.796 7.103-1.166 14.205-4.127 21.307-4.127 7.103 0 14.205 3.841 21.308 5.458 6.873 1.566 13.746 1.929 20.619 4.128 7.103 2.272 14.205 7.203 21.308 9.452 6.873 2.176 13.746 3.221 20.619 3.994 7.103 0.799 14.205 1.198 21.308 1.198 7.102 0 14.204-4.459 21.307-6.523 6.415-1.865 12.83-1.775 19.245-5.326 7.102-3.93 14.205-25.765 21.307-34.747 6.873-8.693 13.747-10.945 20.62-18.772 7.102-8.087 14.205-15.538 21.307-29.289 6.873-13.306 13.747-43.822 20.62-51.122 7.102-7.544 14.205-9.431 21.307-11.317" clip-path="url(#clip-0-3)" stroke="Green" stroke-width="1.92" clip-path-id="0-3"/>
    <clipPath id="clip-0-4">
     <rect y="53.12" width="1067.4" height="736.07"/>
    </clipPath>
    <path class="outline" transform="translate(58.55)" d="m21.307 505.16c7.103 4.017 14.205 8.034 21.307 12.648 6.874 4.464 13.747 14.511 20.62 14.511 7.103 0 14.205-7.056 21.307-7.056 6.874 0 13.747 12.914 20.62 12.914 7.103 0 14.205-6.857 21.307-10.385 7.103-3.528 14.205-10.783 21.307-10.783 6.416 0 12.831 9.053 19.246 9.053 7.102 0 14.204-0.622 21.307-1.864 6.873-1.203 13.746-16.238 20.62-20.103 7.102-3.994 14.204-1.997 21.307-5.991 6.873-3.865 13.746-39.141 20.62-39.141 7.102 0 14.204 7.988 21.307 7.988 7.102 0 14.205-0.089 21.307-0.266 6.873-0.172 13.747-14.971 20.62-16.775 7.102-1.864 14.205-2.796 21.307-2.796 6.873 0 13.747 0.799 20.62 0.799 7.102 0 14.205-33.549 21.307-33.549s14.205 8.204 21.307 13.579c6.415 4.855 12.83 16.642 19.245 16.642 7.103 0 14.205-16.109 21.307-16.109 6.874 0 13.747 28.245 20.62 30.221 7.103 2.041 14.205 1.069 21.307 3.062 6.874 1.929 13.747 6 20.62 8.52 7.103 2.605 14.205 6.79 21.307 6.79 7.103 0 14.205-4.926 21.308-4.926 6.873 0 13.746 9.073 20.619 13.313 7.103 4.382 14.205 12.515 21.308 12.515 6.873 0 13.746-1.198 20.619-1.198 7.103 0 14.205 23.542 21.308 31.552 7.102 8.01 14.204 16.508 21.307 16.508 6.644 0 13.288-11.715 19.932-11.715 7.103 0 14.205 14.644 21.307 14.644 6.874 0 13.747-23.298 20.62-23.298 7.103 0 14.205 2.13 21.307 2.13 6.874 0 13.747-0.222 20.62-0.665 7.103-0.459 14.205-8.521 21.307-11.05 7.103-2.53 14.205-4.127 21.308-4.127 6.873 0 13.746 4.26 20.619 4.26 7.103 0 14.205-0.267 21.308-0.267 6.873 0 13.746 8.692 20.619 11.583 7.103 2.988 14.205 5.858 21.308 5.858 7.102 0 14.204-7.139 21.307-8.121 6.415-0.888 12.83-1.332 19.245-1.332 7.102 0 14.205 1.332 21.307 1.332 6.873 0 13.747-2.13 20.62-2.13 7.102 0 14.205 0.621 21.307 1.863 6.873 1.203 13.747 13.819 20.62 18.24 7.102 4.567 14.205 6.477 21.307 8.387" clip-path="url(#clip-0-4)" stroke-width="0" clip-path-id="0-4"/>
    <path class="line" transform="translate(58.55)" d="m21.307 505.16c7.103 4.017 14.205 8.034 21.307 12.648 6.874 4.464 13.747 14.511 20.62 14.511 7.103 0 14.205-7.056 21.307-7.056 6.874 0 13.747 12.914 20.62 12.914 7.103 0 14.205-6.857 21.307-10.385 7.103-3.528 14.205-10.783 21.307-10.783 6.416 0 12.831 9.053 19.246 9.053 7.102 0 14.204-0.622 21.307-1.864 6.873-1.203 13.746-16.238 20.62-20.103 7.102-3.994 14.204-1.997 21.307-5.991 6.873-3.865 13.746-39.141 20.62-39.141 7.102 0 14.204 7.988 21.307 7.988 7.102 0 14.205-0.089 21.307-0.266 6.873-0.172 13.747-14.971 20.62-16.775 7.102-1.864 14.205-2.796 21.307-2.796 6.873 0 13.747 0.799 20.62 0.799 7.102 0 14.205-33.549 21.307-33.549s14.205 8.204 21.307 13.579c6.415 4.855 12.83 16.642 19.245 16.642 7.103 0 14.205-16.109 21.307-16.109 6.874 0 13.747 28.245 20.62 30.221 7.103 2.041 14.205 1.069 21.307 3.062 6.874 1.929 13.747 6 20.62 8.52 7.103 2.605 14.205 6.79 21.307 6.79 7.103 0 14.205-4.926 21.308-4.926 6.873 0 13.746 9.073 20.619 13.313 7.103 4.382 14.205 12.515 21.308 12.515 6.873 0 13.746-1.198 20.619-1.198 7.103 0 14.205 23.542 21.308 31.552 7.102 8.01 14.204 16.508 21.307 16.508 6.644 0 13.288-11.715 19.932-11.715 7.103 0 14.205 14.644 21.307 14.644 6.874 0 13.747-23.298 20.62-23.298 7.103 0 14.205 2.13 21.307 2.13 6.874 0 13.747-0.222 20.62-0.665 7.103-0.459 14.205-8.521 21.307-11.05 7.103-2.53 14.205-4.127 21.308-4.127 6.873 0 13.746 4.26 20.619 4.26 7.103 0 14.205-0.267 21.308-0.267 6.873 0 13.746 8.692 20.619 11.583 7.103 2.988 14.205 5.858 21.308 5.858 7.102 0 14.204-7.139 21.307-8.121 6.415-0.888 12.83-1.332 19.245-1.332 7.102 0 14.205 1.332 21.307 1.332 6.873 0 13.747-2.13 20.62-2.13 7.102 0 14.205 0.621 21.307 1.863 6.873 1.203 13.747 13.819 20.62 18.24 7.102 4.567 14.205 6.477 21.307 8.387" clip-path="url(#clip-0-4)" stroke="#d7d8da" stroke-width="1.92" clip-path-id="0-4"/>
    <clipPath id="clip-0-5">
     <rect y="53.12" width="1067.4" height="736.07"/>
    </clipPath>
    <path class="outline" transform="translate(58.55)" d="m21.307 513.41h21.307c6.874 0 13.747 7.589 20.62 7.589 7.103 0 14.205-3.728 21.307-3.728h20.62c7.103 0 14.205 0.089 21.307 0.266 7.103 0.178 14.205 4.865 21.307 7.589 6.416 2.46 12.831 5.642 19.246 7.855 7.102 2.449 14.204 5.857 21.307 5.857 6.873 0 13.746-0.31 20.62-0.932 7.102-0.642 14.204-9.75 21.307-13.446 6.873-3.576 13.746-2.84 20.62-8.52 7.102-5.87 14.204-28.357 21.307-36.345 7.102-7.988 14.205-6.732 21.307-11.982 6.873-5.081 13.747-15.422 20.62-18.772 7.102-3.461 14.205-5.192 21.307-5.192 6.873 0 13.747 10.384 20.62 10.384 7.102 0 14.205-4.704 21.307-9.718 7.102-5.015 14.205-13.765 21.307-20.369 6.415-5.965 12.83-12.636 19.245-17.441 7.103-5.319 14.205-12.248 21.307-12.248 6.874 0 13.747 2.321 20.62 3.328 7.103 1.041 14.205 2.796 21.307 2.796 6.874 0 13.747-5.325 20.62-5.325 7.103 0 14.205 25.384 21.307 32.484 7.103 7.1 14.205 10.651 21.308 10.651 6.873 0 13.746-10.718 20.619-16.642 7.103-6.121 14.205-15.08 21.308-19.57 6.873-4.345 13.746-7.323 20.619-7.323 7.103 0 14.205 13.447 21.308 19.038 7.102 5.592 14.204 7.517 21.307 14.512 6.644 6.543 13.288 18.21 19.932 25.295 7.103 7.574 14.205 12.294 21.307 18.106 6.874 5.624 13.747 14.524 20.62 16.242 7.103 1.775 14.205 0.887 21.307 2.662 6.874 1.718 13.747 12.249 20.62 12.249 7.103 0 14.205-5.725 21.307-5.725 7.103 0 14.205 0.044 21.308 0.133 6.873 0.086 13.746 24.948 20.619 35.147 7.103 10.539 14.205 25.842 21.308 26.759 6.873 0.888 13.746 0.473 20.619 1.332 7.103 0.888 14.205 2.396 21.308 3.994 7.102 1.597 14.204 2.874 21.307 5.591 6.415 2.455 12.83 9.453 19.245 9.453h21.307c6.873 0 13.747 1.738 20.62 4.127 7.102 2.468 14.205 8.205 21.307 10.65 6.873 2.366 13.747 2.705 20.62 3.994 7.102 1.332 14.205 2.597 21.307 3.861" clip-path="url(#clip-0-5)" stroke-width="0" clip-path-id="0-5"/>
    <path class="line" transform="translate(58.55)" d="m21.307 513.41h21.307c6.874 0 13.747 7.589 20.62 7.589 7.103 0 14.205-3.728 21.307-3.728h20.62c7.103 0 14.205 0.089 21.307 0.266 7.103 0.178 14.205 4.865 21.307 7.589 6.416 2.46 12.831 5.642 19.246 7.855 7.102 2.449 14.204 5.857 21.307 5.857 6.873 0 13.746-0.31 20.62-0.932 7.102-0.642 14.204-9.75 21.307-13.446 6.873-3.576 13.746-2.84 20.62-8.52 7.102-5.87 14.204-28.357 21.307-36.345 7.102-7.988 14.205-6.732 21.307-11.982 6.873-5.081 13.747-15.422 20.62-18.772 7.102-3.461 14.205-5.192 21.307-5.192 6.873 0 13.747 10.384 20.62 10.384 7.102 0 14.205-4.704 21.307-9.718 7.102-5.015 14.205-13.765 21.307-20.369 6.415-5.965 12.83-12.636 19.245-17.441 7.103-5.319 14.205-12.248 21.307-12.248 6.874 0 13.747 2.321 20.62 3.328 7.103 1.041 14.205 2.796 21.307 2.796 6.874 0 13.747-5.325 20.62-5.325 7.103 0 14.205 25.384 21.307 32.484 7.103 7.1 14.205 10.651 21.308 10.651 6.873 0 13.746-10.718 20.619-16.642 7.103-6.121 14.205-15.08 21.308-19.57 6.873-4.345 13.746-7.323 20.619-7.323 7.103 0 14.205 13.447 21.308 19.038 7.102 5.592 14.204 7.517 21.307 14.512 6.644 6.543 13.288 18.21 19.932 25.295 7.103 7.574 14.205 12.294 21.307 18.106 6.874 5.624 13.747 14.524 20.62 16.242 7.103 1.775 14.205 0.887 21.307 2.662 6.874 1.718 13.747 12.249 20.62 12.249 7.103 0 14.205-5.725 21.307-5.725 7.103 0 14.205 0.044 21.308 0.133 6.873 0.086 13.746 24.948 20.619 35.147 7.103 10.539 14.205 25.842 21.308 26.759 6.873 0.888 13.746 0.473 20.619 1.332 7.103 0.888 14.205 2.396 21.308 3.994 7.102 1.597 14.204 2.874 21.307 5.591 6.415 2.455 12.83 9.453 19.245 9.453h21.307c6.873 0 13.747 1.738 20.62 4.127 7.102 2.468 14.205 8.205 21.307 10.65 6.873 2.366 13.747 2.705 20.62 3.994 7.102 1.332 14.205 2.597 21.307 3.861" clip-path="url(#clip-0-5)" stroke="#d7d8d6" stroke-width="1.92" clip-path-id="0-5"/>
    <clipPath id="clip-0-6">
     <rect y="53.12" width="1067.4" height="736.07"/>
    </clipPath>
    <path class="outline" transform="translate(58.55)" d="m21.307 305.2c7.103-8.188 14.205-16.375 21.307-16.375 6.874 0 13.747 19.291 20.62 20.236 7.103 0.976 14.205 1.131 21.307 1.464 6.874 0.323 13.747 0.533 20.62 0.533 7.103 0 14.205-28.757 21.307-28.757 7.103 0 14.205 1.553 21.307 4.66 6.416 2.806 12.831 37.543 19.246 37.543 7.102 0 14.204-6.39 21.307-19.171 6.873-12.368 13.746-50.022 20.62-74.82 7.102-25.625 14.204-55.384 21.307-76.418 6.873-20.355 13.746-37.278 20.62-48.593 7.102-11.692 14.204-19.437 21.307-19.437 7.102 0 14.205 86.969 21.307 113.69 6.873 25.863 13.747 38.467 20.62 46.197 7.102 7.988 14.205 4.471 21.307 11.982 6.873 7.268 13.747 17.954 20.62 31.685 7.102 14.189 14.205 40.162 21.307 52.721 7.102 12.558 14.205 17.012 21.307 22.632 6.415 5.076 12.83 3.506 19.245 10.517 7.103 7.763 14.205 37.517 21.307 79.214 6.874 40.351 13.747 120.96 20.62 164.02 7.103 44.491 14.205 72.832 21.307 96.255 6.874 22.667 13.747 37.311 20.62 43.667 7.103 6.568 14.205 9.852 21.307 9.852 7.103 0 14.205-59.32 21.308-77.083 6.873-17.191 13.746-25.682 20.619-29.29 7.103-3.727 14.205-5.591 21.308-5.591 6.873 0 13.746 9.186 20.619 9.186 7.103 0 14.205-5.858 21.308-7.455 7.102-1.598 14.204-0.799 21.307-2.397 6.644-1.494 13.288-16.375 19.932-16.375 7.103 0 14.205 13.047 21.307 13.047 6.874 0 13.747-26.248 20.62-34.348 7.103-8.37 14.205-9.411 21.307-14.378 6.874-4.807 13.747-14.052 20.62-14.911 7.103-0.888 14.205-1.331 21.307-1.331 7.103 0 14.205 0.647 21.308 1.331 6.873 0.662 13.746 2.663 20.619 2.663 7.103 0 14.205-2.663 21.308-7.988 6.873-5.154 13.746-21.581 20.619-25.961 7.103-4.527 14.205-6.79 21.308-6.79 7.102 0 14.204 4.285 21.307 5.459 6.415 1.059 12.83 1.597 19.245 1.597 7.102 0 14.205-27.144 21.307-34.481 6.873-7.1 13.747-7.009 20.62-10.651 7.102-3.763 14.205-11.582 21.307-11.582 6.873 0 13.747 25.029 20.62 25.029 7.102 0 14.205-1.265 21.307-2.53" clip-path="url(#clip-0-6)" stroke-width="0" clip-path-id="0-6"/>
    <path class="line" transform="translate(58.55)" d="m21.307 305.2c7.103-8.188 14.205-16.375 21.307-16.375 6.874 0 13.747 19.291 20.62 20.236 7.103 0.976 14.205 1.131 21.307 1.464 6.874 0.323 13.747 0.533 20.62 0.533 7.103 0 14.205-28.757 21.307-28.757 7.103 0 14.205 1.553 21.307 4.66 6.416 2.806 12.831 37.543 19.246 37.543 7.102 0 14.204-6.39 21.307-19.171 6.873-12.368 13.746-50.022 20.62-74.82 7.102-25.625 14.204-55.384 21.307-76.418 6.873-20.355 13.746-37.278 20.62-48.593 7.102-11.692 14.204-19.437 21.307-19.437 7.102 0 14.205 86.969 21.307 113.69 6.873 25.863 13.747 38.467 20.62 46.197 7.102 7.988 14.205 4.471 21.307 11.982 6.873 7.268 13.747 17.954 20.62 31.685 7.102 14.189 14.205 40.162 21.307 52.721 7.102 12.558 14.205 17.012 21.307 22.632 6.415 5.076 12.83 3.506 19.245 10.517 7.103 7.763 14.205 37.517 21.307 79.214 6.874 40.351 13.747 120.96 20.62 164.02 7.103 44.491 14.205 72.832 21.307 96.255 6.874 22.667 13.747 37.311 20.62 43.667 7.103 6.568 14.205 9.852 21.307 9.852 7.103 0 14.205-59.32 21.308-77.083 6.873-17.191 13.746-25.682 20.619-29.29 7.103-3.727 14.205-5.591 21.308-5.591 6.873 0 13.746 9.186 20.619 9.186 7.103 0 14.205-5.858 21.308-7.455 7.102-1.598 14.204-0.799 21.307-2.397 6.644-1.494 13.288-16.375 19.932-16.375 7.103 0 14.205 13.047 21.307 13.047 6.874 0 13.747-26.248 20.62-34.348 7.103-8.37 14.205-9.411 21.307-14.378 6.874-4.807 13.747-14.052 20.62-14.911 7.103-0.888 14.205-1.331 21.307-1.331 7.103 0 14.205 0.647 21.308 1.331 6.873 0.662 13.746 2.663 20.619 2.663 7.103 0 14.205-2.663 21.308-7.988 6.873-5.154 13.746-21.581 20.619-25.961 7.103-4.527 14.205-6.79 21.308-6.79 7.102 0 14.204 4.285 21.307 5.459 6.415 1.059 12.83 1.597 19.245 1.597 7.102 0 14.205-27.144 21.307-34.481 6.873-7.1 13.747-7.009 20.62-10.651 7.102-3.763 14.205-11.582 21.307-11.582 6.873 0 13.747 25.029 20.62 25.029 7.102 0 14.205-1.265 21.307-2.53" clip-path="url(#clip-0-6)" stroke="Green" stroke-width="1.92" clip-path-id="0-6"/>
    <clipPath id="clip-0-7">
     <rect y="53.12" width="1067.4" height="736.07"/>
    </clipPath>
    <path class="outline" transform="translate(58.55)" d="m21.307 618.59c7.103-1.464 14.205-2.929 21.307-2.929 6.874 0 13.747 0.799 20.62 2.397 7.103 1.651 14.205 20.902 21.307 20.902 6.874 0 13.747-35.68 20.62-35.68 7.103 0 14.205 10.518 21.307 10.518 7.103 0 14.205-1.824 21.307-4.926 6.416-2.803 12.831-11.982 19.246-11.982 7.102 0 14.204 0.133 21.307 0.133 6.873 0 13.746-37.277 20.62-37.277 7.102 0 14.204 14.909 21.307 22.766 6.873 7.603 13.746 23.564 20.62 23.564 7.102 0 14.204-0.044 21.307-0.133 7.102-0.089 14.205-9.106 21.307-15.044 6.873-5.747 13.747-15.251 20.62-19.837 7.102-4.738 14.205-7.721 21.307-7.721 6.873 0 13.747 3.594 20.62 3.594 7.102 0 14.205-26.493 21.307-26.493s14.205 7.056 21.307 7.056c6.415 0 12.83-30.221 19.245-30.221 7.103 0 14.205 7.588 21.307 22.766 6.874 14.687 13.747 92.393 20.62 92.393 7.103 0 14.205-47.019 21.307-60.042 6.874-12.604 13.747-13.591 20.62-18.905 7.103-5.492 14.205-4.438 21.307-13.313 7.103-8.876 14.205-31.043 21.308-42.203 6.873-10.8 13.746-13.979 20.619-24.23 7.103-10.593 14.205-36.449 21.308-38.742 6.873-2.218 13.746-3.328 20.619-3.328 7.103 0 14.205 7.899 21.308 20.902 7.102 13.002 14.204 41.49 21.307 57.113 6.644 14.616 13.288 34.881 19.932 34.881 7.103 0 14.205-11.875 21.307-18.106 6.874-6.03 13.747-18.638 20.62-18.638 7.103 0 14.205 15.739 21.307 24.762 6.874 8.732 13.747 26.983 20.62 28.357 7.103 1.42 14.205 2.13 21.307 2.13 7.103 0 14.205-15.177 21.308-15.177 6.873 0 13.746 8.254 20.619 8.254 7.103 0 14.205-4.228 21.308-9.851 6.873-5.442 13.746-22.899 20.619-22.899 7.103 0 14.205 36.611 21.308 36.611 7.102 0 14.204-52.359 21.307-62.971 6.415-9.586 12.83-14.378 19.245-14.378 7.102 0 14.205 7.056 21.307 7.056 6.873 0 13.747-82.276 20.62-82.276 7.102 0 14.205 1.376 21.307 4.127 6.873 2.663 13.747 40.49 20.62 48.993 7.102 8.786 14.205 10.983 21.307 13.18" clip-path="url(#clip-0-7)" stroke-width="0" clip-path-id="0-7"/>
    <path class="line" transform="translate(58.55)" d="m21.307 618.59c7.103-1.464 14.205-2.929 21.307-2.929 6.874 0 13.747 0.799 20.62 2.397 7.103 1.651 14.205 20.902 21.307 20.902 6.874 0 13.747-35.68 20.62-35.68 7.103 0 14.205 10.518 21.307 10.518 7.103 0 14.205-1.824 21.307-4.926 6.416-2.803 12.831-11.982 19.246-11.982 7.102 0 14.204 0.133 21.307 0.133 6.873 0 13.746-37.277 20.62-37.277 7.102 0 14.204 14.909 21.307 22.766 6.873 7.603 13.746 23.564 20.62 23.564 7.102 0 14.204-0.044 21.307-0.133 7.102-0.089 14.205-9.106 21.307-15.044 6.873-5.747 13.747-15.251 20.62-19.837 7.102-4.738 14.205-7.721 21.307-7.721 6.873 0 13.747 3.594 20.62 3.594 7.102 0 14.205-26.493 21.307-26.493s14.205 7.056 21.307 7.056c6.415 0 12.83-30.221 19.245-30.221 7.103 0 14.205 7.588 21.307 22.766 6.874 14.687 13.747 92.393 20.62 92.393 7.103 0 14.205-47.019 21.307-60.042 6.874-12.604 13.747-13.591 20.62-18.905 7.103-5.492 14.205-4.438 21.307-13.313 7.103-8.876 14.205-31.043 21.308-42.203 6.873-10.8 13.746-13.979 20.619-24.23 7.103-10.593 14.205-36.449 21.308-38.742 6.873-2.218 13.746-3.328 20.619-3.328 7.103 0 14.205 7.899 21.308 20.902 7.102 13.002 14.204 41.49 21.307 57.113 6.644 14.616 13.288 34.881 19.932 34.881 7.103 0 14.205-11.875 21.307-18.106 6.874-6.03 13.747-18.638 20.62-18.638 7.103 0 14.205 15.739 21.307 24.762 6.874 8.732 13.747 26.983 20.62 28.357 7.103 1.42 14.205 2.13 21.307 2.13 7.103 0 14.205-15.177 21.308-15.177 6.873 0 13.746 8.254 20.619 8.254 7.103 0 14.205-4.228 21.308-9.851 6.873-5.442 13.746-22.899 20.619-22.899 7.103 0 14.205 36.611 21.308 36.611 7.102 0 14.204-52.359 21.307-62.971 6.415-9.586 12.83-14.378 19.245-14.378 7.102 0 14.205 7.056 21.307 7.056 6.873 0 13.747-82.276 20.62-82.276 7.102 0 14.205 1.376 21.307 4.127 6.873 2.663 13.747 40.49 20.62 48.993 7.102 8.786 14.205 10.983 21.307 13.18" clip-path="url(#clip-0-7)" stroke="#d6d8d9" stroke-width="1.92" clip-path-id="0-7"/>
    <clipPath id="clip-0-8">
     <rect y="53.12" width="1067.4" height="736.07"/>
    </clipPath>
    <path class="outline" transform="translate(58.55)" d="m21.307 512.61c7.103 9.719 14.205 19.438 21.307 19.438 6.874 0 13.747-41.271 20.62-41.271 7.103 0 14.205 61.107 21.307 61.107 6.874 0 13.747-2.085 20.62-6.257 7.103-4.31 14.205-73.222 21.307-73.222 7.103 0 14.205 4.659 21.307 13.978 6.416 8.418 12.831 47.89 19.246 64.17 7.102 18.024 14.204 35.28 21.307 35.28 6.873 0 13.746-33.204 20.62-45.265 7.102-12.463 14.204-16.697 21.307-27.691 6.873-10.641 13.746-28.804 20.62-36.878 7.102-8.343 14.204-7.699 21.307-12.514 7.102-4.815 14.205-16.376 21.307-16.376 6.873 0 13.747 88.666 20.62 88.666 7.102 0 14.205-47.018 21.307-66.299 6.873-18.66 13.747-36.181 20.62-48.061 7.102-12.276 14.205-16.508 21.307-23.564s14.205-6.258 21.307-18.772c6.415-11.303 12.83-47.886 19.245-64.303 7.103-18.176 14.205-36.078 21.307-36.078 6.874 0 13.747 31.152 20.62 31.152 7.103 0 14.205-0.399 21.307-0.399 6.874 0 13.747 23.011 20.62 32.484 7.103 9.79 14.205 18.128 21.307 25.029 7.103 6.901 14.205 16.375 21.308 16.375 6.873 0 13.746-108.96 20.619-109.3 7.103-0.355 14.205-0.533 21.308-0.533 6.873 0 13.746 57.347 20.619 81.477 7.103 24.935 14.205 47.262 21.308 65.102 7.102 17.839 14.204 26.749 21.307 41.936 6.644 14.208 13.288 45.798 19.932 45.798 7.103 0 14.205-14.772 21.307-17.707 6.874-2.84 13.747-4.26 20.62-4.26 7.103 0 14.205 29.723 21.307 39.007 6.874 8.985 13.747 16.509 20.62 16.509 7.103 0 14.205-4.837 21.307-12.248 7.103-7.411 14.205-32.218 21.308-32.218 6.873 0 13.746 38.821 20.619 59.377 7.103 21.24 14.205 66.166 21.308 66.166 6.873 0 13.746-39.819 20.619-41.537 7.103-1.775 14.205-0.888 21.308-2.663 7.102-1.775 14.204-7.275 21.307-13.579 6.415-5.694 12.83-15.493 19.245-21.434 7.102-6.578 14.205-5.104 21.307-15.31 6.873-9.878 13.747-57.388 20.62-77.483 7.102-20.765 14.205-34.304 21.307-43.934 6.873-9.319 13.747-13.979 20.62-13.979 7.102 0 14.205 35.547 21.307 71.093" clip-path="url(#clip-0-8)" stroke-width="0" clip-path-id="0-8"/>
    <path class="line" transform="translate(58.55)" d="m21.307 512.61c7.103 9.719 14.205 19.438 21.307 19.438 6.874 0 13.747-41.271 20.62-41.271 7.103 0 14.205 61.107 21.307 61.107 6.874 0 13.747-2.085 20.62-6.257 7.103-4.31 14.205-73.222 21.307-73.222 7.103 0 14.205 4.659 21.307 13.978 6.416 8.418 12.831 47.89 19.246 64.17 7.102 18.024 14.204 35.28 21.307 35.28 6.873 0 13.746-33.204 20.62-45.265 7.102-12.463 14.204-16.697 21.307-27.691 6.873-10.641 13.746-28.804 20.62-36.878 7.102-8.343 14.204-7.699 21.307-12.514 7.102-4.815 14.205-16.376 21.307-16.376 6.873 0 13.747 88.666 20.62 88.666 7.102 0 14.205-47.018 21.307-66.299 6.873-18.66 13.747-36.181 20.62-48.061 7.102-12.276 14.205-16.508 21.307-23.564s14.205-6.258 21.307-18.772c6.415-11.303 12.83-47.886 19.245-64.303 7.103-18.176 14.205-36.078 21.307-36.078 6.874 0 13.747 31.152 20.62 31.152 7.103 0 14.205-0.399 21.307-0.399 6.874 0 13.747 23.011 20.62 32.484 7.103 9.79 14.205 18.128 21.307 25.029 7.103 6.901 14.205 16.375 21.308 16.375 6.873 0 13.746-108.96 20.619-109.3 7.103-0.355 14.205-0.533 21.308-0.533 6.873 0 13.746 57.347 20.619 81.477 7.103 24.935 14.205 47.262 21.308 65.102 7.102 17.839 14.204 26.749 21.307 41.936 6.644 14.208 13.288 45.798 19.932 45.798 7.103 0 14.205-14.772 21.307-17.707 6.874-2.84 13.747-4.26 20.62-4.26 7.103 0 14.205 29.723 21.307 39.007 6.874 8.985 13.747 16.509 20.62 16.509 7.103 0 14.205-4.837 21.307-12.248 7.103-7.411 14.205-32.218 21.308-32.218 6.873 0 13.746 38.821 20.619 59.377 7.103 21.24 14.205 66.166 21.308 66.166 6.873 0 13.746-39.819 20.619-41.537 7.103-1.775 14.205-0.888 21.308-2.663 7.102-1.775 14.204-7.275 21.307-13.579 6.415-5.694 12.83-15.493 19.245-21.434 7.102-6.578 14.205-5.104 21.307-15.31 6.873-9.878 13.747-57.388 20.62-77.483 7.102-20.765 14.205-34.304 21.307-43.934 6.873-9.319 13.747-13.979 20.62-13.979 7.102 0 14.205 35.547 21.307 71.093" clip-path="url(#clip-0-8)" stroke="#d9d8d6" stroke-width="1.92" clip-path-id="0-8"/>
   </g>
   <g class="fl-label" transform="translate(1084 437)" font-size="19.2" font-weight="700" aria-hidden="true">
    <text class="bg" transform="translate(12.48,6.336)"><tspan x="0" dy="0" fill="none" stroke="rgb(255, 255, 255)" stroke-width="4.8">Meat</tspan></text>
    <text class="fg" transform="translate(12.48,6.336)"><tspan x="0" dy="0" fill="rgb(0, 128, 0)">Meat</tspan></text>
   </g>
   <g class="fl-label" transform="translate(1084 523.66)" font-size="19.2" font-weight="700" aria-hidden="true">
    <text class="bg" transform="translate(12.48,6.336)"><tspan x="0" dy="0" fill="none" stroke="rgb(255, 255, 255)" stroke-width="4.8">Oils and fats</tspan></text>
    <text class="fg" transform="translate(12.48,6.336)"><tspan x="0" dy="0" fill="rgb(0, 128, 0)">Oils and fats</tspan></text>
   </g>
  </g>
  <g id="data-points">
   <g class="series" transform="translate(58.55)" clip-path="url(#clip-data-points-0)">
    <clipPath id="clip-data-points-0">
     <rect x="-4.8" y="53.12" width="1072.2" height="734.15"/>
    </clipPath>
   </g>
   <g class="series" transform="translate(58.55)" clip-path="url(#clip-data-points-1)">
    <clipPath id="clip-data-points-1">
     <rect x="-4.8" y="53.12" width="1072.2" height="734.15"/>
    </clipPath>
   </g>
   <g class="series" transform="translate(58.55)" clip-path="url(#clip-data-points-2)">
    <clipPath id="clip-data-points-2">
     <rect x="-4.8" y="53.12" width="1072.2" height="734.15"/>
    </clipPath>
   </g>
   <g class="series" transform="translate(58.55)" clip-path="url(#clip-data-points-3)">
    <clipPath id="clip-data-points-3">
     <rect x="-4.8" y="53.12" width="1072.2" height="734.15"/>
    </clipPath>
   </g>
   <g class="series" transform="translate(58.55)" clip-path="url(#clip-data-points-4)">
    <clipPath id="clip-data-points-4">
     <rect x="-4.8" y="53.12" width="1072.2" height="734.15"/>
    </clipPath>
   </g>
   <g class="series" transform="translate(58.55)" clip-path="url(#clip-data-points-5)">
    <clipPath id="clip-data-points-5">
     <rect x="-4.8" y="53.12" width="1072.2" height="734.15"/>
    </clipPath>
   </g>
   <g class="series" transform="translate(58.55)" clip-path="url(#clip-data-points-6)">
    <clipPath id="clip-data-points-6">
     <rect x="-4.8" y="53.12" width="1072.2" height="734.15"/>
    </clipPath>
   </g>
   <g class="series" transform="translate(58.55)" clip-path="url(#clip-data-points-7)">
    <clipPath id="clip-data-points-7">
     <rect x="-4.8" y="53.12" width="1072.2" height="734.15"/>
    </clipPath>
   </g>
   <g class="series" transform="translate(58.55)" clip-path="url(#clip-data-points-8)">
    <clipPath id="clip-data-points-8">
     <rect x="-4.8" y="53.12" width="1072.2" height="734.15"/>
    </clipPath>
   </g>
  </g>
  <g id="data-point-labels"></g>
  <g class="annotations above">
   <g id="axes-highlights">
    <g class="axis-highlights-facet">
     <g class="axis-highlights" transform="translate(58.55)">
      <g class="line x" transform="translate(105.16 55.04)" pointer-events="none">
       <line y2="732.23" stroke="currentColor" stroke-dasharray="2 2" stroke-width="2"/>
       <text transform="translate(8.64 20.736)" fill="currentColor" font-size="17.28" font-weight="regular"><tspan class="bg-label" x="0" y="0px" display="block" fill="none" stroke-width="2">December 2021</tspan><tspan class="fg-label" x="0" y="0px">December 2021</tspan></text>
      </g>
     </g>
    </g>
   </g>
  </g>
 </svg>
 <svg id="fl-layout-svg-screenshot-container" class="flourish-screenshot-svg-container" style="height:900px;left:0px;position:absolute;top:0px;width:1320px" version="1.1">
  <g fill="rgb(51, 51, 51)" font-family="Canva Sans Variable">
   <text dominant-baseline="text-before-edge" font-size="38.4px" font-weight="700"><tspan x="0" dx="0" dy="0"/></text>
   <g font-weight="400">
    <text dominant-baseline="text-before-edge" font-size="26.88px"><tspan x="0" dx="0" dy="0"/></text>
    <text dominant-baseline="text-before-edge" font-size="23.04px"><tspan x="0" dx="0" dy="0"/></text>
    <text dominant-baseline="text-before-edge" font-size="19.2px"><tspan x="0" dx="0" dy="0"/></text>
   </g>
  </g>
 </svg>
</svg>
